<?xml version="1.0" encoding="UTF-8" standalone="no"?>
<!DOCTYPE svg PUBLIC "-//W3C//DTD SVG 1.1//EN" "http://www.w3.org/Graphics/SVG/1.1/DTD/svg11.dtd">
<svg width="100%" height="100%" viewBox="0 0 140 160" version="1.1" xmlns="http://www.w3.org/2000/svg" xmlns:xlink="http://www.w3.org/1999/xlink" xml:space="preserve" xmlns:serif="http://www.serif.com/" style="fill-rule:evenodd;clip-rule:evenodd;stroke-linejoin:round;stroke-miterlimit:2;">
    <g transform="matrix(1,0,0,1,0,-11.3092)">
        <path d="M70,11.309C73.587,11.309 76.5,14.222 76.5,17.809L76.5,62.308C76.5,65.895 73.587,68.808 70,68.808C66.413,68.808 63.5,65.895 63.5,62.308L63.5,17.809C63.5,14.222 66.413,11.309 70,11.309Z" style="fill:url(#_Linear1);"/>
    </g>
    <path d="M51.925,12.36L51.925,25.931C29.314,33.496 13,54.858 13,80C13,111.459 38.541,137 70,137C101.459,137 127,111.459 127,80C127,54.858 110.686,33.496 88.075,25.931L88.075,12.36C117.963,20.34 140,47.617 140,80C140,118.634 108.634,150 70,150C31.366,150 0,118.634 0,80C0,47.617 22.037,20.34 51.925,12.36Z" style="fill:url(#_Linear2);"/>
    <defs>
        <linearGradient id="_Linear1" x1="0" y1="0" x2="1" y2="0" gradientUnits="userSpaceOnUse" gradientTransform="matrix(140,0,0,140,0,70)"><stop offset="0" style="stop-color:rgb(110,72,170);stop-opacity:1"/><stop offset="1" style="stop-color:rgb(220,169,240);stop-opacity:1"/></linearGradient>
        <linearGradient id="_Linear2" x1="0" y1="0" x2="1" y2="0" gradientUnits="userSpaceOnUse" gradientTransform="matrix(140,0,0,140,0,70)"><stop offset="0" style="stop-color:rgb(110,72,170);stop-opacity:1"/><stop offset="1" style="stop-color:rgb(220,169,240);stop-opacity:1"/></linearGradient>
    </defs>
</svg>
