<?xml version="1.0" encoding="UTF-8" standalone="no"?>
<!DOCTYPE svg PUBLIC "-//W3C//DTD SVG 1.1//EN" "http://www.w3.org/Graphics/SVG/1.1/DTD/svg11.dtd">
<svg width="100%" height="100%" viewBox="0 0 140 140" version="1.1" xmlns="http://www.w3.org/2000/svg" xmlns:xlink="http://www.w3.org/1999/xlink" xml:space="preserve" xmlns:serif="http://www.serif.com/" style="fill-rule:evenodd;clip-rule:evenodd;stroke-linejoin:round;stroke-miterlimit:2;">
    <g>
        <path d="M70,0C108.634,0 140,31.366 140,70C140,108.634 108.634,140 70,140C31.366,140 0,108.634 0,70C0,31.366 31.366,0 70,0ZM70,13C101.459,13 127,38.541 127,70C127,101.459 101.459,127 70,127C38.541,127 13,101.459 13,70C13,38.541 38.541,13 70,13Z" style="fill:url(#_Linear1);"/>
        <g transform="matrix(0.427572,0,0,0.427572,53.0811,27.1384)">
            <path d="M70,0C108.634,0 140,31.366 140,70C140,108.634 108.634,140 70,140C31.366,140 0,108.634 0,70C0,31.366 31.366,0 70,0ZM70,30.404C91.854,30.404 109.596,48.146 109.596,70C109.596,91.854 91.854,109.596 70,109.596C48.146,109.596 30.404,91.854 30.404,70C30.404,48.146 48.146,30.404 70,30.404Z" style="fill:url(#_Linear2);"/>
        </g>
    </g>
    <defs>
        <linearGradient id="_Linear1" x1="0" y1="0" x2="1" y2="0" gradientUnits="userSpaceOnUse" gradientTransform="matrix(140,0,0,140,0,70)"><stop offset="0" style="stop-color:rgb(110,72,170);stop-opacity:1"/><stop offset="1" style="stop-color:rgb(220,169,240);stop-opacity:1"/></linearGradient>
        <linearGradient id="_Linear2" x1="0" y1="0" x2="1" y2="0" gradientUnits="userSpaceOnUse" gradientTransform="matrix(140,0,0,140,0,70)"><stop offset="0" style="stop-color:rgb(110,72,170);stop-opacity:1"/><stop offset="1" style="stop-color:rgb(220,169,240);stop-opacity:1"/></linearGradient>
    </defs>
</svg>
