<?xml version="1.0" encoding="UTF-8" standalone="no"?><!DOCTYPE svg PUBLIC "-//W3C//DTD SVG 1.1//EN" "http://www.w3.org/Graphics/SVG/1.1/DTD/svg11.dtd"><svg width="100%" height="100%" viewBox="0 0 478 143" version="1.1" xmlns="http://www.w3.org/2000/svg" xmlns:xlink="http://www.w3.org/1999/xlink" xml:space="preserve" xmlns:serif="http://www.serif.com/" style="fill-rule:evenodd;clip-rule:evenodd;stroke-linejoin:round;stroke-miterlimit:2;"><path id="logo" d="M227.013,34.143l0,-25.508c5.419,-1.453 11.11,-2.24 16.987,-2.24c5.7,0 11.229,0.732 16.5,2.101l0,25.647l16.141,2.439l0,-21.457c19.599,11.306 32.802,32.46 32.802,56.712c0,36.143 -29.3,65.443 -65.443,65.443c-36.143,0 -65.443,-29.3 -65.443,-65.443c0,-24.264 13.216,-45.428 32.833,-56.729l0,21.474l15.623,-2.439Zm49.628,25.05l-16.141,2.264l0,19.897c0,2.748 -0.833,4.933 -2.498,6.556c-1.666,1.623 -3.878,2.434 -6.635,2.434l-15.278,0c-2.49,0 -4.624,-0.869 -6.405,-2.605c-1.781,-1.738 -2.671,-3.866 -2.671,-6.385l0,-19.897l-15.623,-2.264l0,21.773c0,6.843 2.45,12.672 7.352,17.488c4.901,4.817 10.799,7.226 17.691,7.226l15.222,0c7.16,0 13.057,-2.125 17.691,-6.376c4.862,-4.557 7.295,-10.683 7.295,-18.38l0,-21.731Z" style="fill-rule:nonzero;"/><path d="M21.201,105.232l0,-68.415l14.399,0l0,25.26l4.279,0l0,-25.26l14.522,0l0,68.415l-14.522,0l0,-32.007l-4.279,0l0,32.007l-14.399,0Z" style="fill-rule:nonzero;"/><path d="M74.682,49.694l0,41.304c0,1.289 0.158,2.187 0.474,2.694c0.315,0.508 0.857,0.761 1.625,0.761c0.685,0 1.206,-0.185 1.563,-0.555c0.356,-0.37 0.535,-0.885 0.535,-1.543l0,-41.386c0,-1.316 -0.165,-2.208 -0.494,-2.674c-0.329,-0.466 -0.946,-0.699 -1.851,-0.699c-0.604,0 -1.063,0.185 -1.378,0.555c-0.316,0.37 -0.474,0.885 -0.474,1.543Zm-14.481,0.864c0,-6.363 0.933,-10.312 2.798,-11.848c1.865,-1.536 6.431,-2.304 13.699,-2.304c7.433,0 12.068,0.823 13.905,2.468c1.838,1.646 2.757,5.54 2.757,11.684l0,40.851c0,6.281 -0.933,10.237 -2.798,11.869c-1.865,1.632 -6.459,2.447 -13.781,2.447c-7.406,0 -12.02,-0.836 -13.844,-2.509c-1.824,-1.673 -2.736,-5.609 -2.736,-11.807l0,-40.851Z" style="fill-rule:nonzero;"/><path d="M99.201,105.232l0,-68.415l14.399,0l0,57.307l8.598,0l0,11.108l-22.997,0Z" style="fill-rule:nonzero;"/><path d="M141.739,49.694l0,41.304c0,1.289 0.158,2.187 0.473,2.694c0.316,0.508 0.857,0.761 1.625,0.761c0.686,0 1.207,-0.185 1.564,-0.555c0.356,-0.37 0.534,-0.885 0.534,-1.543l0,-41.386c0,-1.316 -0.164,-2.208 -0.493,-2.674c-0.329,-0.466 -0.946,-0.699 -1.851,-0.699c-0.604,0 -1.063,0.185 -1.379,0.555c-0.315,0.37 -0.473,0.885 -0.473,1.543Zm-14.481,0.864c0,-6.363 0.933,-10.312 2.798,-11.848c1.865,-1.536 6.431,-2.304 13.699,-2.304c7.433,0 12.068,0.823 13.905,2.468c1.838,1.646 2.756,5.54 2.756,11.684l0,40.851c0,6.281 -0.932,10.237 -2.797,11.869c-1.865,1.632 -6.459,2.447 -13.782,2.447c-7.405,0 -12.019,-0.836 -13.843,-2.509c-1.824,-1.673 -2.736,-5.609 -2.736,-11.807l0,-40.851Z" style="fill-rule:nonzero;"/><path d="M333.118,105.232l0,-57.143l-7.405,0l0,-11.272l29.209,0l0,11.272l-7.405,0l0,57.143l-14.399,0Z" style="fill-rule:nonzero;"/><path d="M377.919,62.776l0,-11.231c0,-1.7 -0.192,-2.743 -0.576,-3.126c-0.384,-0.384 -1.166,-0.576 -2.345,-0.576l-1.275,0l0,17.525l1.357,0.082c1.097,0 1.845,-0.185 2.242,-0.555c0.398,-0.37 0.597,-1.077 0.597,-2.119Zm-18.677,42.456l0,-68.415l16.496,0c7.186,0 11.766,0.816 13.741,2.448c1.975,1.632 2.962,5.533 2.962,11.704l0,7.076c0,4.964 -0.487,8.283 -1.461,9.956c-0.973,1.673 -2.735,2.962 -5.286,3.867c2.468,0.713 4.21,1.885 5.225,3.517c1.015,1.632 1.522,4.162 1.522,7.59l0,22.257l-14.522,0l0,-23.491c0,-1.426 -0.233,-2.386 -0.7,-2.879c-0.466,-0.494 -1.343,-0.741 -2.633,-0.741l-0.863,0l0,27.111l-14.481,0Z" style="fill-rule:nonzero;"/><rect x="398.242" y="36.817" width="14.399" height="68.414" style="fill-rule:nonzero;"/><path d="M433.374,47.843l0,23.449l1.358,0.082c1.097,0 1.844,-0.192 2.242,-0.576c0.398,-0.384 0.597,-1.097 0.597,-2.139l0,-17.114c0,-1.7 -0.192,-2.743 -0.576,-3.126c-0.384,-0.384 -1.166,-0.576 -2.345,-0.576l-1.276,0Zm-14.481,57.389l0,-68.415l16.497,0c7.186,0 11.766,0.816 13.741,2.448c1.974,1.632 2.962,5.533 2.962,11.704l0,17.114c0,6.226 -0.994,10.155 -2.983,11.786c-1.988,1.632 -6.534,2.448 -13.637,2.448l-2.099,0l0,22.915l-14.481,0Z" style="fill-rule:nonzero;"/></svg>