<?xml version="1.0" encoding="UTF-8" standalone="no"?>
<svg
   xmlns:dc="http://purl.org/dc/elements/1.1/"
   xmlns:cc="http://creativecommons.org/ns#"
   xmlns:rdf="http://www.w3.org/1999/02/22-rdf-syntax-ns#"
   xmlns:svg="http://www.w3.org/2000/svg"
   xmlns="http://www.w3.org/2000/svg"
   xmlns:sodipodi="http://sodipodi.sourceforge.net/DTD/sodipodi-0.dtd"
   xmlns:inkscape="http://www.inkscape.org/namespaces/inkscape"
   sodipodi:docname="holotrip3.svg"
   inkscape:version="1.0 (4035a4f, 2020-05-01)"
   id="svg1071"
   version="1.1"
   viewBox="0 0 111.60398 35.090855"
   height="35.090855mm"
   width="111.60398mm">
  <defs
     id="defs1065" />
  <sodipodi:namedview
     inkscape:window-maximized="1"
     inkscape:window-y="23"
     inkscape:window-x="0"
     inkscape:window-height="855"
     inkscape:window-width="1440"
     showgrid="false"
     inkscape:document-rotation="0"
     inkscape:current-layer="layer1"
     inkscape:document-units="mm"
     inkscape:cy="292.0277"
     inkscape:cx="-640.52341"
     inkscape:zoom="0.35"
     inkscape:pageshadow="2"
     inkscape:pageopacity="0.0"
     borderopacity="1.0"
     bordercolor="#666666"
     pagecolor="#ffffff"
     id="base" />
  <metadata
     id="metadata1068">
    <rdf:RDF>
      <cc:Work
         rdf:about="">
        <dc:format>image/svg+xml</dc:format>
        <dc:type
           rdf:resource="http://purl.org/dc/dcmitype/StillImage" />
        <dc:title></dc:title>
      </cc:Work>
    </rdf:RDF>
  </metadata>
  <g
     transform="translate(-16.769439,-68.633147)"
     id="layer1"
     inkscape:groupmode="layer"
     inkscape:label="Layer 1">
    <path
       style="clip-rule:evenodd;fill-rule:nonzero;stroke-width:0.264583;stroke-linejoin:round;stroke-miterlimit:2"
       d="m 71.223769,75.974796 v -6.748983 c 1.433774,-0.384439 2.939518,-0.592666 4.494472,-0.592666 1.508122,0 2.971003,0.193675 4.365619,0.555889 v 6.78576 l 4.270635,0.645318 v -5.677157 c 5.18556,2.991375 8.678851,8.588364 8.678851,15.005031 0,9.562823 -7.752283,17.315102 -17.315105,17.315102 -9.562825,0 -17.315106,-7.752279 -17.315106,-17.315102 0,-6.419842 3.49673,-12.019477 8.687054,-15.009529 v 5.681655 z M 84.354495,82.6026 80.08386,83.201616 v 5.264408 c 0,0.727074 -0.220398,1.305188 -0.660929,1.734606 -0.440796,0.429418 -1.026051,0.643995 -1.755508,0.643995 h -4.042299 c -0.658812,0 -1.22343,-0.229922 -1.694653,-0.689238 -0.471223,-0.459846 -0.706702,-1.022878 -0.706702,-1.689363 V 83.201616 L 67.090189,82.6026 v 5.760766 c 0,1.810541 0.648229,3.352796 1.945214,4.627027 1.29672,1.274497 2.857232,1.911877 4.680738,1.911877 h 4.027482 c 1.894414,0 3.45466,-0.562239 4.680739,-1.686981 1.286401,-1.205705 1.930133,-2.82654 1.930133,-4.863036 z"
       id="logo" />
    <path
       id="path939"
       style="clip-rule:evenodd;fill-rule:nonzero;stroke-width:0.264583;stroke-linejoin:round;stroke-miterlimit:2"
       d="m 52.062932,76.040704 v 19.227219 c 0,0.59981 0.0463,1.024202 0.138642,1.273175 0.0926,0.249767 0.250825,0.390525 0.475721,0.42254 0.200818,0.02884 0.353483,-0.03651 0.457993,-0.196321 0.104246,-0.160338 0.156369,-0.396346 0.156369,-0.707496 V 76.500179 c 0,-0.621982 -0.04815,-1.037695 -0.144462,-1.24579 -0.09631,-0.207592 -0.277019,-0.294163 -0.541867,-0.260058 -0.177006,0.02273 -0.31115,0.126391 -0.403754,0.310726 -0.09234,0.183912 -0.138642,0.429339 -0.138642,0.735647 z m -4.239942,0.87487 c 0,-2.805771 0.27305,-4.593849 0.81915,-5.371908 0.5461,-0.787796 1.883036,-1.391125 4.011078,-1.802736 2.176459,-0.420976 3.533505,-0.28072 4.071403,0.427963 0.538162,0.719374 0.806979,2.609767 0.806979,5.664351 v 20.309921 c 0,3.122607 -0.272786,5.039245 -0.818886,5.741975 -0.5461,0.69268 -1.891239,0.81175 -4.035419,0.36592 -2.168258,-0.45111 -3.519218,-1.10701 -4.053147,-1.96109 -0.534194,-0.843488 -0.801158,-2.6281 -0.801158,-5.361241 z M 39.607952,99.339061 V 72.425944 l 4.215866,-0.80547 v 23.942459 l 2.517507,0.354542 v 4.802715 z M 32.428704,78.327733 v 14.531083 c 0,0.453495 0.04625,0.775572 0.138774,0.966866 0.09223,0.192352 0.250931,0.30427 0.4758,0.336285 0.20058,0.02858 0.353139,-0.01561 0.457649,-0.13335 0.104246,-0.118268 0.15666,-0.295804 0.15666,-0.532076 V 78.642216 c 0,-0.472333 -0.04831,-0.786605 -0.144648,-0.94173 -0.09633,-0.154622 -0.276992,-0.214683 -0.541972,-0.180605 -0.176847,0.02275 -0.311255,0.105384 -0.403489,0.247597 -0.09252,0.14187 -0.138774,0.328771 -0.138774,0.560255 z m -4.240048,0.77663 c 0,-2.082321 0.273182,-3.421429 0.819255,-4.024863 0.546073,-0.613145 1.883011,-1.129134 4.011078,-1.540772 2.17638,-0.420978 3.533506,-0.37428 4.071377,0.147372 0.538241,0.532235 0.807322,1.979848 0.807322,4.335933 v 15.665272 c 0,2.408764 -0.273314,3.875347 -0.819308,4.392872 -0.546073,0.506941 -1.891213,0.5334 -4.035102,0.08758 -2.168469,-0.451118 -3.519457,-1.012035 -4.053517,-1.675871 -0.534088,-0.653257 -0.801105,-1.990459 -0.801105,-4.018779 z M 16.769439,94.65462 V 76.789156 l 4.216024,-0.80547 v 7.212877 l 1.252906,-0.05609 v -7.396155 l 4.252034,-0.812323 v 21.716524 l -4.252034,-0.872331 v -9.371583 l -1.252906,-0.02476 v 9.139437 z" />
    <path
       id="path947"
       style="clip-rule:evenodd;fill-rule:nonzero;stroke-width:0.264583;stroke-linejoin:round;stroke-miterlimit:2"
       d="m 123.1249,78.769031 0.0124,7.344453 0.37968,0.01823 c 0.30692,-0.006 0.51594,-0.06911 0.62706,-0.188806 0.11113,-0.119116 0.16643,-0.337502 0.16616,-0.655584 l -0.007,-5.224244 c -7.9e-4,-0.518927 -0.055,-0.84447 -0.16272,-0.9761 -0.10795,-0.132503 -0.32729,-0.222012 -0.65775,-0.268102 z m -4.00658,18.983062 -0.0643,-23.304708 4.63073,0.989064 c 2.01718,0.430847 3.30305,0.939719 3.85735,1.517516 0.55404,0.565546 0.83132,1.700686 0.83132,3.414708 v 4.753498 c 0,1.729315 -0.27781,2.839002 -0.8337,3.338032 -0.55536,0.511571 -1.82562,0.865107 -3.81026,1.051374 l -0.58631,0.05506 0.0119,7.177133 z m -5.86104,-24.542824 4.04177,0.863281 0.0765,24.114518 -4.01399,1.002504 z m -5.65017,9.638705 -0.0236,-4.6973 c -0.004,-0.711014 -0.0598,-1.154376 -0.16801,-1.329292 -0.10848,-0.175894 -0.32835,-0.287099 -0.65881,-0.333163 l -0.35746,-0.04982 0.0386,7.468993 0.38021,0.0427 c 0.30692,0.0063 0.51594,-0.06718 0.62627,-0.219921 0.11059,-0.152188 0.16483,-0.446405 0.16272,-0.8822 z m -5.11757,19.057276 -0.17965,-31.034207 4.63047,0.989011 c 2.01718,0.430821 3.30437,1.0319 3.86159,1.794085 0.55694,0.749987 0.84058,2.325816 0.8509,4.737041 l 0.0119,2.764865 c 0.008,1.939606 -0.12224,3.234501 -0.39212,3.888868 -0.26934,0.660558 -0.75988,1.178479 -1.47187,1.555695 0.69162,0.268499 1.1811,0.718528 1.46764,1.350749 0.28654,0.625951 0.43259,1.60631 0.43841,2.945762 l 0.0376,8.696736 -4.04838,1.010975 -0.0492,-9.824895 c -0.003,-0.596423 -0.0701,-0.993139 -0.20161,-1.190359 -0.1315,-0.198517 -0.37703,-0.286358 -0.73766,-0.262784 l -0.2413,0.0158 0.0601,11.554338 z m -7.282644,1.81875 -0.192088,-28.748322 -2.076447,-0.285856 -0.04022,-5.828993 8.199159,1.751214 0.031,5.205406 -2.076179,-0.285882 0.168804,27.189923 z" />
  </g>
</svg>
