<?xml version="1.0" encoding="UTF-8" standalone="no"?><!DOCTYPE svg PUBLIC "-//W3C//DTD SVG 1.1//EN" "http://www.w3.org/Graphics/SVG/1.1/DTD/svg11.dtd"><svg width="100%" height="100%" viewBox="0 0 478 143" version="1.1" xmlns="http://www.w3.org/2000/svg" xmlns:xlink="http://www.w3.org/1999/xlink" xml:space="preserve" xmlns:serif="http://www.serif.com/" style="fill-rule:evenodd;clip-rule:evenodd;stroke-linejoin:round;stroke-miterlimit:1.41421;"><path id="logo" d="M136.484,69.837c0,-36.143 -29.3,-65.443 -65.443,-65.443c-24.252,0 -45.406,13.203 -56.712,32.802l35.595,0l0,16.141l-42.224,0c-1.369,5.271 -2.101,10.8 -2.101,16.5c0,5.877 0.787,11.568 2.24,16.987l26.3,0l0,15.623l-19.827,0c11.301,19.617 32.465,32.833 56.729,32.833c36.143,0 65.443,-29.3 65.443,-65.443m-31.6,7.567c0,6.892 -2.409,12.79 -7.226,17.691c-4.816,4.902 -10.645,7.352 -17.488,7.352l-30.246,0l0,-15.623l30.634,0c2.519,0 4.647,-0.89 6.385,-2.671c1.736,-1.781 2.605,-3.915 2.605,-6.405l0,-15.278c0,-2.757 -0.811,-4.969 -2.434,-6.635c-1.623,-1.665 -3.808,-2.498 -6.556,-2.498l-14.849,0l0,-16.141l14.419,0c7.697,0 13.823,2.433 18.38,7.295c4.251,4.634 6.376,10.531 6.376,17.691l0,15.222Z" style="fill-rule:nonzero;"/><path id="text" d="M168.512,74.637l12.946,0l0,-9.596l-12.946,0l0,-17.448l17.727,0l0,-9.596l-27.323,0l0,63.649l9.596,0l0,-27.009Zm24.322,-36.64l0,63.649l9.596,0l0,-24.008l5.504,0c0.302,0 0.592,-0.011 0.871,-0.035l5.852,24.043l10.35,0l-7.11,-27.812c3.414,-3.093 5.121,-6.897 5.121,-11.41l0,-9.247c0,-4.583 -1.105,-8.166 -3.315,-10.748c-2.49,-2.954 -6.409,-4.432 -11.76,-4.432l-15.109,0Zm20.832,24.636c0,1.513 -0.528,2.809 -1.583,3.891c-1.055,1.082 -2.348,1.623 -3.879,1.623l-5.774,0l0,-20.344l5.774,0c3.642,0 5.462,1.849 5.462,5.548l0,9.282Zm29.172,-24.636l-9.596,0l0,63.648l9.596,0l0,-63.648Zm17.901,63.649l9.596,0l0,-54.053l10.155,0l0,-9.596l-29.94,0l0,9.596l10.189,0l0,54.053Zm26.346,-63.649l0,9.596l17.692,0l-17.692,44.526l0,9.527l27.986,0l0,-9.527l-17.657,0l17.657,-44.526l0,-9.596l-27.986,0Zm35.977,0l0,63.649l9.596,0l0,-24.008l5.539,0c4.157,0 7.698,-1.489 10.624,-4.467c2.927,-2.977 4.39,-6.56 4.39,-10.747l0,-9.247c0,-4.35 -1.291,-7.933 -3.873,-10.748c-2.769,-2.954 -6.491,-4.432 -11.167,-4.432l-15.109,0Zm20.832,24.636c0,1.513 -0.528,2.809 -1.583,3.891c-1.055,1.082 -2.348,1.623 -3.879,1.623l-5.774,0l0,-20.344l5.774,0c1.67,0 2.998,0.506 3.983,1.518c0.986,1.012 1.479,2.355 1.479,4.03l0,9.282Zm26.59,-24.636l-9.596,0l0,63.648l9.596,0l0,-63.648Zm34.406,60.037c2.978,-2.943 4.467,-6.531 4.467,-10.765l0,-8.863l-9.945,0l0,8.758c0,1.536 -0.541,2.839 -1.623,3.909c-1.082,1.07 -2.39,1.605 -3.925,1.605c-1.513,0 -2.804,-0.535 -3.874,-1.605c-1.07,-1.07 -1.605,-2.373 -1.605,-3.909l0,-34.93c0,-1.535 0.535,-2.843 1.605,-3.925c1.07,-1.082 2.361,-1.623 3.874,-1.623c1.535,0 2.843,0.541 3.925,1.623c1.082,1.082 1.623,2.39 1.623,3.925l0,7.433l9.945,0l0,-7.258c0,-4.187 -1.472,-7.77 -4.414,-10.748c-2.943,-2.977 -6.532,-4.466 -10.765,-4.466c-4.188,0 -7.771,1.483 -10.748,4.449c-2.978,2.966 -4.467,6.555 -4.467,10.765l0,34.86c0,4.211 1.477,7.794 4.432,10.748c2.954,2.954 6.548,4.431 10.783,4.431c4.164,0 7.734,-1.471 10.712,-4.414m24.741,-22.176l10.05,25.788l11.271,0l-15.354,-37.617l13.12,-26.032l-10.259,0l-11.655,22.682l0,-22.682l-9.596,0l0,63.649l9.596,0l0,-20.1l2.827,-5.688Z" style="fill-rule:nonzero;"/></svg>